<svg xmlns="http://www.w3.org/2000/svg" viewBox="0 0 500 200"><defs><linearGradient id="cloudlessGradient" x1="0%" y1="0%" x2="100%" y2="100%"><stop offset="0%" style="stop-color:#4F46E5;stop-opacity:1" /><stop offset="100%" style="stop-color:#7C3AED;stop-opacity:1" /></linearGradient></defs><g transform="translate(50, 50)"><path fill="#4F46E5" stroke="#7C3AED" stroke-width="2" d="M150,80 Q120,60 100,80 Q80,100 100,120 Q120,140 150,120 Q180,100 150,80 Z M100,80 Q80,70 60,80 Q40,90 60,100 Q80,110 100,100 Q120,90 100,80 Z M180,100 Q200,90 220,100 Q240,110 220,120 Q200,130 180,120 Q160,110 180,100 Z" /><g stroke="#FBBF24" stroke-width="3" stroke-linecap="round"><line x1="250" y1="60" x2="280" y2="40" /><line x1="250" y1="60" x2="270" y2="20" /><line x1="250" y1="60" x2="300" y2="30" /></g></g><text x="280" y="90" font-family="Arial" font-weight="700" font-size="48" fill="url(#cloudlessGradient)">cloudless</text><text x="280" y="130" font-family="Arial" font-weight="400" font-size="24" fill="#6B7280">.gr</text><text x="280" y="160" font-family="Arial" font-size="16" fill="#6B7280" font-weight="300">Clear Solutions for the Cloud Era</text></svg>
